<svg width="50" height="50" viewBox="0 0 50 50" fill="none" xmlns="http://www.w3.org/2000/svg">
<g clip-path="url(#clip0_1464_8887)">
<path d="M25 50C38.8071 50 50 38.8071 50 25C50 11.1929 38.8071 0 25 0C11.1929 0 0 11.1929 0 25C0 38.8071 11.1929 50 25 50Z" fill="#E84142"/>
<path d="M33.8193 25.6497C34.6859 24.1532 36.0867 24.1532 36.9493 25.6497L42.3426 35.1183C43.2091 36.6138 42.5003 37.8342 40.7653 37.8342H29.9017C28.1894 37.8342 27.4806 36.6138 28.3245 35.1183L33.8193 25.6497ZM23.3866 7.42116C24.2521 5.92569 25.6303 5.92569 26.4968 7.42116L27.6975 9.58993L30.5317 14.5702C30.8718 15.2728 31.0485 16.0432 31.0485 16.8238C31.0485 17.6043 30.8718 18.3748 30.5317 19.0773L21.0236 35.5511C20.5991 36.211 20.025 36.7617 19.348 37.1583C18.6709 37.555 17.91 37.7866 17.1267 37.8342H9.23239C7.50033 37.8342 6.79153 36.6335 7.6551 35.1183L23.3866 7.42116Z" fill="white"/>
</g>
<defs>
<clipPath id="clip0_1464_8887">
<rect width="50" height="50" fill="white"/>
</clipPath>
</defs>
</svg>
