<svg width="50" height="50" viewBox="0 0 50 50" fill="none" xmlns="http://www.w3.org/2000/svg">
<g clip-path="url(#clip0_1465_8925)">
<path d="M25 50C38.8071 50 50 38.8071 50 25C50 11.1929 38.8071 0 25 0C11.1929 0 0 11.1929 0 25C0 38.8071 11.1929 50 25 50Z" fill="#8247E5"/>
<path d="M33.2749 19.6512C32.6753 19.3023 31.8958 19.3023 31.2362 19.6512L26.559 22.3256L23.381 24.0698L18.7039 26.7442C18.1042 27.093 17.3248 27.093 16.6651 26.7442L12.9474 24.6512C12.3478 24.3023 11.9281 23.6628 11.9281 22.9651V18.8372C11.9281 18.1396 12.2878 17.5 12.9474 17.1512L16.6052 15.1163C17.2048 14.7674 17.9843 14.7674 18.6439 15.1163L22.3017 17.1512C22.9013 17.5 23.321 18.1396 23.321 18.8372V21.5116L26.4991 19.7093V17.0349C26.4991 16.3372 26.1393 15.6977 25.4797 15.3488L18.7039 11.5116C18.1042 11.1628 17.3248 11.1628 16.6651 11.5116L9.76938 15.3488C9.10977 15.6977 8.75 16.3372 8.75 17.0349V24.7674C8.75 25.4651 9.10977 26.1046 9.76938 26.4535L16.6651 30.2907C17.2648 30.6396 18.0443 30.6396 18.7039 30.2907L23.381 27.6744L26.559 25.8721L31.2362 23.2558C31.8358 22.907 32.6153 22.907 33.2749 23.2558L36.9327 25.2907C37.5323 25.6396 37.952 26.2791 37.952 26.9768V31.1046C37.952 31.8023 37.5922 32.4418 36.9327 32.7907L33.2749 34.8837C32.6753 35.2326 31.8958 35.2326 31.2362 34.8837L27.5784 32.8488C26.9788 32.5 26.559 31.8604 26.559 31.1628V28.4884L23.381 30.2907V32.9651C23.381 33.6628 23.7408 34.3023 24.4004 34.6512L31.2961 38.4884C31.8958 38.8372 32.6753 38.8372 33.3349 38.4884L40.2306 34.6512C40.8303 34.3023 41.25 33.6628 41.25 32.9651V25.2326C41.25 24.5349 40.8902 23.8954 40.2306 23.5465L33.2749 19.6512Z" fill="white"/>
</g>
<defs>
<clipPath id="clip0_1465_8925">
<rect width="50" height="50" fill="white"/>
</clipPath>
</defs>
</svg>
