<svg width="50" height="50" viewBox="0 0 50 50" fill="none" xmlns="http://www.w3.org/2000/svg">
<g clip-path="url(#clip0_1464_8898)">
<path d="M25 50C38.8071 50 50 38.8071 50 25C50 11.1929 38.8071 0 25 0C11.1929 0 0 11.1929 0 25C0 38.8071 11.1929 50 25 50Z" fill="black"/>
<path d="M39.5454 32.7107L34.8087 37.6595C34.7058 37.767 34.5812 37.8527 34.4427 37.9113C34.3043 37.9699 34.1549 38.0001 34.004 38H11.5499C11.4428 38 11.3379 37.9695 11.2484 37.9123C11.1588 37.855 11.0883 37.7736 11.0456 37.6778C11.0029 37.5821 10.9898 37.4763 11.008 37.3734C11.0261 37.2706 11.0748 37.1751 11.1478 37.0988L15.8881 32.15C15.9908 32.0428 16.115 31.9572 16.2529 31.8987C16.391 31.8401 16.5398 31.8098 16.6904 31.8095H39.1433C39.2504 31.8095 39.3552 31.84 39.4449 31.8972C39.5343 31.9545 39.6048 32.036 39.6477 32.1317C39.6903 32.2274 39.7034 32.3332 39.6852 32.4361C39.667 32.5389 39.6184 32.6344 39.5454 32.7107ZM34.8087 22.7452C34.7058 22.6377 34.5812 22.552 34.4427 22.4934C34.3043 22.4349 34.1549 22.4047 34.004 22.4048H11.5499C11.4428 22.4048 11.3379 22.4353 11.2484 22.4925C11.1588 22.5497 11.0883 22.6312 11.0456 22.7269C11.0029 22.8227 10.9898 22.9285 11.008 23.0313C11.0261 23.1342 11.0748 23.2296 11.1478 23.306L15.8881 28.2548C15.9908 28.362 16.115 28.4475 16.2529 28.5061C16.391 28.5646 16.5398 28.595 16.6904 28.5952H39.1433C39.2504 28.5952 39.3552 28.5647 39.4449 28.5075C39.5343 28.4503 39.6048 28.3688 39.6477 28.2731C39.6903 28.1773 39.7034 28.0715 39.6852 27.9687C39.667 27.8658 39.6184 27.7704 39.5454 27.694L34.8087 22.7452ZM11.5499 19.1905H34.004C34.1549 19.1905 34.3043 19.1604 34.4427 19.1018C34.5812 19.0432 34.7058 18.9575 34.8087 18.85L39.5454 13.9012C39.6184 13.8249 39.667 13.7294 39.6852 13.6266C39.7034 13.5237 39.6903 13.4179 39.6477 13.3222C39.6048 13.2265 39.5343 13.145 39.4449 13.0877C39.3552 13.0305 39.2504 13 39.1433 13H16.6904C16.5398 13.0002 16.391 13.0306 16.2529 13.0892C16.115 13.1477 15.9908 13.2333 15.8881 13.3405L11.1491 18.2893C11.076 18.3655 11.0274 18.4609 11.0092 18.5636C10.991 18.6664 11.004 18.7721 11.0465 18.8678C11.0891 18.9634 11.1594 19.0449 11.2488 19.1022C11.3382 19.1596 11.4429 19.1902 11.5499 19.1905Z" fill="url(#paint0_linear_1464_8898)"/>
</g>
<defs>
<linearGradient id="paint0_linear_1464_8898" x1="13.422" y1="38.5958" x2="36.2822" y2="12.1431" gradientUnits="userSpaceOnUse">
<stop offset="0.08" stop-color="#9945FF"/>
<stop offset="0.3" stop-color="#8752F3"/>
<stop offset="0.5" stop-color="#5497D5"/>
<stop offset="0.6" stop-color="#43B4CA"/>
<stop offset="0.72" stop-color="#28E0B9"/>
<stop offset="0.97" stop-color="#19FB9B"/>
</linearGradient>
<clipPath id="clip0_1464_8898">
<rect width="50" height="50" fill="white"/>
</clipPath>
</defs>
</svg>
