<svg width="50" height="50" viewBox="0 0 50 50" fill="none" xmlns="http://www.w3.org/2000/svg">
<g clip-path="url(#clip0_1460_8580)">
<path d="M25 50C38.8071 50 50 38.8071 50 25C50 11.1929 38.8071 0 25 0C11.1929 0 0 11.1929 0 25C0 38.8071 11.1929 50 25 50Z" fill="#F3BA2F"/>
<path d="M18.9313 22.5063L25 16.4375L31.0719 22.5094L34.6031 18.9781L25 9.375L15.4 18.975L18.9313 22.5063ZM9.375 25L12.9063 21.4687L16.4375 25L12.9063 28.5313L9.375 25ZM18.9313 27.4938L25 33.5625L31.0719 27.4906L34.6031 31.0203L25 40.625L15.4 31.025L15.3953 31.0203L18.9313 27.4938ZM33.5625 25L37.0937 21.4687L40.625 25L37.0937 28.5313L33.5625 25ZM28.5812 24.9969H28.5844V25L25 28.5844L21.4203 25.0062L21.4141 25L21.4203 24.9953L22.0469 24.3672L22.3516 24.0625L25 21.4156L28.5828 24.9984L28.5812 24.9969Z" fill="white"/>
</g>
<defs>
<clipPath id="clip0_1460_8580">
<rect width="50" height="50" fill="white"/>
</clipPath>
</defs>
</svg>
