<svg width="50" height="50" viewBox="0 0 50 50" fill="none" xmlns="http://www.w3.org/2000/svg">
<g clip-path="url(#clip0_1460_8573)">
<path d="M25 50C38.8071 50 50 38.8071 50 25C50 11.1929 38.8071 0 25 0C11.1929 0 0 11.1929 0 25C0 38.8071 11.1929 50 25 50Z" fill="#F3BA2F"/>
<path d="M24.9997 9L28.9638 13.0476L18.9818 23L15.0176 19.0476L24.9997 9Z" fill="white"/>
<path d="M31.0176 15L34.9818 19.0476L18.9818 35L15.0176 31.0476L31.0176 15Z" fill="white"/>
<path d="M12.9642 21L16.9284 25.0476L12.9642 29L9 25.0476L12.9642 21Z" fill="white"/>
<path d="M37.0361 21L41.0003 25.0476L25.0003 41L21.0361 37.0476L37.0361 21Z" fill="white"/>
</g>
<defs>
<clipPath id="clip0_1460_8573">
<rect width="50" height="50" fill="white"/>
</clipPath>
</defs>
</svg>
