<svg width="50" height="50" viewBox="0 0 50 50" fill="none" xmlns="http://www.w3.org/2000/svg">
<rect width="50" height="50" rx="25" fill="#6978FF"/>
<path d="M17.3272 36.3871L12.9866 14.3871C12.7427 13.151 13.6888 12 14.9488 12H34.5543C35.8515 12 36.8055 13.2158 36.4969 14.4758L31.1086 36.4758C30.8894 37.3706 30.0873 38 29.166 38H19.2894C18.3341 38 17.5121 37.3244 17.3272 36.3871Z" fill="#F3F9FB" stroke="#F2FEFF"/>
<path d="M34.4503 21.9307C34.4503 22.1117 34.4098 22.2895 34.3318 22.4629C33.5933 24.1048 29.4926 25.3612 24.5445 25.3612C19.544 25.3612 15.4089 24.0781 14.7349 22.4106C14.6715 22.2538 14.6387 22.0936 14.6387 21.9307C14.6387 20.036 19.0737 18.5001 24.5445 18.5001C30.0153 18.5001 34.4503 20.036 34.4503 21.9307Z" fill="url(#paint0_linear_1460_8575)"/>
<path d="M34.3318 22.4629C33.5933 24.1048 29.4926 25.3612 24.5445 25.3612C19.544 25.3612 15.4089 24.0781 14.7349 22.4106L17.5006 36.2125C17.6879 37.147 18.5086 37.8196 19.4617 37.8196H29.0636C29.9881 37.8196 30.7921 37.186 31.0082 36.2871L34.3318 22.4629Z" fill="url(#paint1_linear_1460_8575)"/>
<path d="M34.4503 21.9307C34.4503 22.1117 34.4098 22.2895 34.3318 22.4629C33.5933 24.1048 29.4926 25.3612 24.5445 25.3612C19.544 25.3612 15.4089 24.0781 14.7349 22.4106C14.6715 22.2538 14.6387 22.0936 14.6387 21.9307C14.6387 20.036 19.0737 18.5001 24.5445 18.5001C30.0153 18.5001 34.4503 20.036 34.4503 21.9307Z" fill="url(#paint2_linear_1460_8575)"/>
<defs>
<linearGradient id="paint0_linear_1460_8575" x1="24.5445" y1="18.5001" x2="24.5445" y2="37.8196" gradientUnits="userSpaceOnUse">
<stop stop-color="#EFA202"/>
<stop offset="1" stop-color="#F2D81F"/>
</linearGradient>
<linearGradient id="paint1_linear_1460_8575" x1="24.5445" y1="18.5001" x2="24.5445" y2="37.8196" gradientUnits="userSpaceOnUse">
<stop stop-color="#EFA202"/>
<stop offset="1" stop-color="#F2D81F"/>
</linearGradient>
<linearGradient id="paint2_linear_1460_8575" x1="24.5445" y1="18.5001" x2="24.5445" y2="25.9029" gradientUnits="userSpaceOnUse">
<stop stop-color="#F2D81F"/>
<stop offset="1" stop-color="#F6A702"/>
</linearGradient>
</defs>
</svg>
