<svg width="50" height="50" viewBox="0 0 50 50" fill="none" xmlns="http://www.w3.org/2000/svg">
<g clip-path="url(#clip0_1460_8581)">
<path d="M25 50C38.8071 50 50 38.8071 50 25C50 11.1929 38.8071 0 25 0C11.1929 0 0 11.1929 0 25C0 38.8071 11.1929 50 25 50Z" fill="#C3A634"/>
<path fill-rule="evenodd" clip-rule="evenodd" d="M20.7 22.8281H27.4406V26.4H20.7V33.9281H24.9516C26.6344 33.9281 28.0109 33.7016 29.0828 33.2453C30.1547 32.7906 30.9953 32.1609 31.6063 31.3547C32.2311 30.5163 32.6565 29.5463 32.85 28.5188C33.0757 27.3596 33.1857 26.1809 33.1781 25C33.1857 23.8191 33.0757 22.6404 32.85 21.4813C32.6567 20.4536 32.2313 19.4836 31.6063 18.6453C30.9953 17.8391 30.1531 17.2094 29.0828 16.7547C28.0109 16.2984 26.6344 16.0719 24.9516 16.0719H20.7V22.8297V22.8281ZM16.3781 26.4H14.0625V22.8297H16.3781V12.5H26.6109C28.5016 12.5 30.1375 12.8281 31.5203 13.4797C32.9031 14.1344 34.0312 15.0266 34.9078 16.1594C35.7828 17.2906 36.4344 18.6156 36.8609 20.1328C37.2875 21.65 37.5 23.2734 37.5 25C37.5107 26.6441 37.2952 28.2819 36.8594 29.8672C36.4344 31.3828 35.7828 32.7094 34.9063 33.8406C34.0313 34.9734 32.9031 35.8656 31.5203 36.5203C30.1375 37.1734 28.5 37.5 26.6109 37.5H16.3781V26.4V26.4Z" fill="white"/>
</g>
<defs>
<clipPath id="clip0_1460_8581">
<rect width="50" height="50" fill="white"/>
</clipPath>
</defs>
</svg>
