<svg width="50" height="50" viewBox="0 0 50 50" fill="none" xmlns="http://www.w3.org/2000/svg">
<g clip-path="url(#clip0_1460_8574)">
<path d="M25 50C38.8071 50 50 38.8071 50 25C50 11.1929 38.8071 0 25 0C11.1929 0 0 11.1929 0 25C0 38.8071 11.1929 50 25 50Z" fill="#E6007A"/>
<path d="M26.15 10.9375C20.3578 10.9375 15.625 15.6438 15.625 21.4625C15.625 22.6328 15.8187 23.775 16.1812 24.8875C16.3096 25.2548 16.577 25.557 16.9259 25.7291C17.2748 25.9013 17.6773 25.9295 18.0469 25.8078C18.4139 25.6792 18.7157 25.4117 18.8876 25.0628C19.0594 24.7139 19.0874 24.3115 18.9656 23.9422C18.6601 23.0748 18.5187 22.1582 18.5484 21.2391C18.6594 17.3141 21.8344 14.0828 25.7609 13.8891C26.7895 13.835 27.8182 13.9908 28.7847 14.3468C29.7511 14.7029 30.635 15.2519 31.3826 15.9603C32.1302 16.6687 32.7259 17.5218 33.1334 18.4677C33.5409 19.4136 33.7518 20.4326 33.7531 21.4625C33.7508 23.3995 33.0087 25.2624 31.6785 26.6704C30.3484 28.0784 28.5306 28.9252 26.5969 29.0375C26.5969 29.0375 25.1203 29.1203 24.3969 29.2328C24.0344 29.2875 23.7562 29.3438 23.5609 29.3719C23.4766 29.4 23.3937 29.3156 23.4203 29.2313L23.6719 28.0078L25.0359 21.7141C25.1154 21.3377 25.0432 20.9453 24.8348 20.6219C24.6265 20.2986 24.299 20.0706 23.9234 19.9875C23.5469 19.908 23.1542 19.9805 22.8309 20.1892C22.5075 20.3978 22.2796 20.7257 22.1969 21.1016C22.1969 21.1016 18.9109 36.4172 18.8828 36.5844C18.8034 36.9609 18.8758 37.3536 19.0845 37.677C19.2931 38.0003 19.621 38.2282 19.9969 38.3109C20.3734 38.3904 20.7661 38.3179 21.0895 38.1093C21.4128 37.9006 21.6407 37.5727 21.7234 37.1969C21.75 37.0297 22.1969 34.9969 22.1969 34.9969C22.355 34.2516 22.7395 33.5733 23.2977 33.0548C23.856 32.5363 24.5607 32.2028 25.3156 32.1C25.8618 32.0402 26.4094 31.9938 26.9578 31.9609C29.6015 31.7549 32.0704 30.5597 33.8718 28.6138C35.6732 26.6678 36.6747 24.1142 36.6766 21.4625C36.6766 15.6438 31.9422 10.9375 26.15 10.9375V10.9375ZM26.9016 35.1641C26.6748 35.1152 26.4407 35.1117 26.2126 35.154C25.9845 35.1962 25.7671 35.2833 25.573 35.4102C25.3788 35.5371 25.2118 35.7012 25.0815 35.8931C24.9512 36.085 24.8603 36.3008 24.8141 36.5281C24.6187 37.475 25.2047 38.4219 26.1781 38.6172C26.4051 38.6663 26.6395 38.6698 26.8678 38.6276C27.0962 38.5854 27.3138 38.4982 27.5082 38.3711C27.7025 38.2441 27.8697 38.0797 28 37.8875C28.1303 37.6953 28.2211 37.4791 28.2672 37.2516C28.4609 36.2781 27.8766 35.3578 26.9016 35.1641V35.1641Z" fill="white"/>
</g>
<defs>
<clipPath id="clip0_1460_8574">
<rect width="50" height="50" fill="white"/>
</clipPath>
</defs>
</svg>
