<svg width="50" height="50" viewBox="0 0 50 50" fill="none" xmlns="http://www.w3.org/2000/svg">
<g clip-path="url(#clip0_1460_8577)">
<path d="M36.6029 4.40155C35.3016 5.68802 34.1094 7.08234 33.0496 8.5691L32.7146 8.46125C30.7821 7.83727 28.7794 7.4521 26.7612 7.32115C26.1534 7.27493 23.8858 7.27493 23.1456 7.32115C20.9092 7.46751 19.1949 7.79876 17.2468 8.46896C17.1689 8.49977 17.0987 8.52288 17.0286 8.54599C15.9299 7.06693 14.7065 5.68032 13.3584 4.40925C19.826 1.1353 27.3924 0.742426 34.1639 3.32307C34.8886 3.59269 35.5977 3.90853 36.2912 4.24748L36.6029 4.40155Z" fill="#F00500"/>
<path d="M48.6655 33.6206C47.6836 36.3861 46.2109 38.9514 44.3018 41.1854C43.2654 42.3871 42.1199 43.4887 40.8887 44.4901C38.0056 46.7858 34.6393 48.4266 31.047 49.2894C27.0729 50.2369 22.9274 50.2369 18.9533 49.2894C15.3532 48.4266 11.9948 46.7858 9.11159 44.4901C7.8804 43.4887 6.73493 42.3871 5.69855 41.1854C0.204954 34.7684 -1.46261 25.9557 1.33484 18.0135C1.86472 16.5421 2.52707 15.1247 3.32189 13.7766C3.68813 13.1603 4.14008 12.467 4.35827 12.182C5.10633 15.3635 6.02582 18.1599 6.36869 19.169C6.34531 19.2229 6.31414 19.2846 6.28297 19.3385C4.46736 22.9745 3.48553 26.4795 3.25176 30.208C3.25176 30.2542 3.24396 30.3081 3.24396 30.3544C3.18162 31.4714 3.21279 32.0029 3.39981 32.7039C3.98423 34.8994 5.78427 37.3183 8.60509 39.6909C13.2259 43.5734 19.491 46.3775 24.2365 46.701C29.1846 47.0323 36.486 44.1743 41.3485 39.999C42.1121 39.3289 42.829 38.6201 43.4991 37.8652C43.9823 37.3106 44.6992 36.3553 44.6446 36.3553C44.629 36.3553 44.6446 36.3399 44.6758 36.3245C44.6992 36.3091 44.7225 36.286 44.707 36.2706C44.6992 36.2629 44.7147 36.2398 44.7381 36.2321C44.7615 36.2244 44.7771 36.209 44.7693 36.1936C44.7615 36.1781 44.7693 36.1627 44.8005 36.155C44.8238 36.1473 44.8316 36.1242 44.8238 36.1088C44.816 36.0934 44.8238 36.078 44.8394 36.078C44.855 36.078 44.8706 36.0549 44.8706 36.0395C44.8706 36.0241 44.8862 36.001 44.9018 36.001C44.9173 36.001 44.9329 35.9856 44.9329 35.9702C44.9563 35.9085 44.9953 35.8469 45.0342 35.793C45.1511 35.6158 45.6187 34.7915 45.681 34.6529C46.1252 33.6591 46.4057 32.7732 46.5382 31.8873C46.6005 31.4637 46.6395 30.6856 46.6083 30.5007C46.6005 30.4699 46.6005 30.416 46.5927 30.3313C46.5771 30.1772 46.5693 29.9461 46.5537 29.715C46.5382 29.3683 46.507 28.883 46.4836 28.6442C46.1485 25.1469 45.2446 22.2889 43.5303 19.2614C43.4602 19.1459 43.3978 19.0303 43.3589 18.9379C43.3433 18.9148 43.3355 18.8917 43.3277 18.8763C43.5693 18.1599 44.5589 15.1632 45.3459 11.7352L45.3615 11.7506L45.4784 11.9047C45.681 12.1743 46.2187 12.9755 46.4602 13.3606C47.5589 15.1324 48.4161 17.0352 49.0239 19.0226C50.4343 23.8065 50.3174 28.9061 48.6655 33.6206Z" fill="#F00500"/>
<path d="M38.551 24.4151C38.5277 24.5383 38.1614 24.9081 37.7952 25.1777C36.7199 25.9558 34.7952 26.6799 32.8393 27.0265C31.725 27.2268 30.6107 27.2576 30.2756 27.0959C30.0574 26.988 30.0262 26.9033 30.1042 26.626C30.2678 26.0482 30.7977 25.4165 31.6237 24.8234C32.0445 24.5229 33.751 23.4984 34.5458 23.067C35.8549 22.3583 36.9147 21.9346 37.6316 21.8344C37.8575 21.8036 38.1303 21.7959 38.216 21.8344C38.3562 21.8884 38.5121 22.2966 38.5744 22.7896C38.6056 23.0516 38.59 24.2071 38.551 24.4151Z" fill="#0F172A"/>
<path d="M20.1919 26.9649C20.1452 27.0573 19.9114 27.1574 19.6465 27.196C19.3815 27.2345 18.5711 27.2114 18.1114 27.1574C16.4594 26.9418 14.7061 26.441 13.4282 25.8248C12.7113 25.4781 12.197 25.1314 11.8152 24.754L11.597 24.5306L11.5736 24.2378C11.5347 23.7294 11.5425 22.9283 11.6048 22.6432C11.6438 22.4044 11.7295 22.1733 11.8464 21.9653C11.9087 21.8883 11.9087 21.8883 12.1892 21.8883C12.5321 21.8883 12.8204 21.9422 13.2879 22.0886C14.2464 22.3813 15.6724 23.09 17.4101 24.1223C18.8439 24.9697 19.3815 25.3857 19.7945 25.9557C20.0751 26.3101 20.2621 26.8108 20.1919 26.9649Z" fill="#0F172A"/>
<path d="M31.2264 37.688C31.2264 37.7111 31.1329 38.0809 31.016 38.52C30.8991 38.9591 30.8056 39.3134 30.8056 39.3288C30.7199 39.3365 30.642 39.3442 30.5563 39.3365H30.3069L29.9641 40.1377C29.777 40.5768 29.6056 40.9851 29.5822 41.0467L29.5355 41.1546L29.3718 40.8926L29.2082 40.6307V38.4969L29.1459 38.5123C29.0134 38.5431 28.0705 38.6663 27.6575 38.7049C25.951 38.8743 24.2367 38.8358 22.538 38.597C22.2652 38.5585 22.0315 38.5277 22.0237 38.5354C22.0159 38.5431 22.0237 39.0361 22.0393 39.6447L22.0626 40.7386L21.9302 40.9389C21.86 41.0467 21.7899 41.1391 21.7899 41.1468C21.7665 41.17 21.6886 41.0467 21.5094 40.6923C21.3146 40.3226 21.1743 39.9297 21.073 39.5214L21.0185 39.298L20.7769 39.3134L20.5353 39.3365L20.473 39.0515C20.4418 38.8974 20.4029 38.6586 20.3873 38.5277L20.3639 38.2812L20.1613 38.104C20.0444 38.0038 19.9275 37.9037 19.9042 37.8883C19.8652 37.8575 19.8496 37.8036 19.8496 37.7573V37.6649L20.8237 37.6726L21.7977 37.6803L21.8289 37.7805L21.86 37.8806L22.1951 37.896C22.3821 37.9037 22.9743 37.9191 23.5042 37.9345L24.4783 37.9576L24.7276 37.5725L24.9848 37.1873H25.312L25.3042 36.3861L25.2965 35.585L24.8679 35.4001C23.4886 34.7992 22.6782 34.1136 22.3743 33.2817C22.312 33.1122 22.312 33.0506 22.2964 32.2802C22.2886 31.5176 22.2886 31.4482 22.3432 31.2788C22.4522 30.8936 22.7562 30.5932 23.1458 30.493C23.2782 30.4545 23.6289 30.4545 25.4679 30.4545L27.6342 30.4622L27.8757 30.5778C28.164 30.7164 28.2965 30.8166 28.4601 31.0323C28.6472 31.2788 28.7017 31.4713 28.7017 31.9413C28.7017 32.6115 28.655 33.1892 28.5848 33.4203C28.4835 33.7362 28.3277 34.0366 28.1329 34.3062C27.7432 34.7992 27.0341 35.2922 26.3874 35.5156L26.2004 35.585L26.2082 36.3938L26.216 37.2027L26.3874 37.2181L26.5588 37.2335L26.7926 37.5802L27.0186 37.9268H28.0627C28.6394 37.9268 29.1459 37.9345 29.1926 37.9422C29.2705 37.9576 29.2861 37.9499 29.3641 37.819L29.4576 37.6803H30.3537C31.0238 37.6495 31.2264 37.6649 31.2264 37.688Z" fill="#0F172A"/>
<path d="M27.1122 39.8989C26.9641 39.9836 26.8628 40.0222 26.8394 40.0067C26.8161 39.999 26.707 39.9066 26.5901 39.8219L26.3797 39.6524L26.1615 39.8835C25.6862 40.3919 25.6706 40.415 25.5303 40.4227C25.3121 40.4458 25.2654 40.4073 25.0004 40.0145C24.8602 39.8142 24.7511 39.6447 24.7511 39.6447C24.7511 39.6447 24.6498 39.6293 24.5329 39.6216L24.3147 39.5985L24.2134 39.8065L24.1121 40.0145L23.9329 39.9605C23.7926 39.9143 23.6524 39.8604 23.5199 39.7988L23.2861 39.6832V39.2441L25.3589 39.2518L27.4316 39.2595L27.4394 39.4675C27.4472 39.714 27.455 39.7063 27.1122 39.8989Z" fill="#0F172A"/>
<path d="M46.5928 30.5007C46.585 30.4699 46.585 30.416 46.5772 30.3313C44.707 30.131 39.3693 30.0077 34.4133 34.052C34.4133 34.052 32.8159 26.8108 25.3353 26.8108C17.8546 26.8108 15.0806 34.052 15.0806 34.052C10.8883 29.5917 5.27782 29.9153 3.25182 30.208C3.25182 30.2542 3.24402 30.3081 3.24402 30.3544C3.18168 31.4714 3.21285 32.0029 3.39987 32.7039C3.98429 34.8994 5.78432 37.3183 8.60515 39.6909C13.226 43.5734 19.491 46.3775 24.2366 46.701C29.1847 47.0323 36.4861 44.1743 41.3485 39.999C42.1122 39.3289 42.8291 38.6201 43.4992 37.8652C43.9823 37.3106 44.6992 36.3553 44.6447 36.3553C44.6291 36.3553 44.6447 36.3399 44.6759 36.3245C44.6992 36.3091 44.7226 36.286 44.707 36.2706C44.6992 36.2629 44.7148 36.2398 44.7382 36.2321C44.7616 36.2244 44.7771 36.209 44.7694 36.1936C44.7616 36.1781 44.7694 36.1627 44.8005 36.155C44.8239 36.1473 44.8317 36.1242 44.8239 36.1088C44.8161 36.0934 44.8239 36.078 44.8395 36.078C44.8551 36.078 44.8707 36.0549 44.8707 36.0395C44.8707 36.0241 44.8862 36.001 44.9018 36.001C44.9174 36.001 44.933 35.9856 44.933 35.9702C44.9564 35.9085 44.9953 35.8469 45.0343 35.793C45.1512 35.6158 45.6187 34.7915 45.6811 34.6529C46.1252 33.6591 46.4057 32.7732 46.5382 31.8873C46.585 31.4637 46.6239 30.6856 46.5928 30.5007ZM27.1119 39.8989C26.9639 39.9836 26.8626 40.0222 26.8392 40.0067C26.8158 39.999 26.7067 39.9066 26.5898 39.8219L26.3795 39.6524L26.1613 39.8835C25.6859 40.3919 25.6703 40.415 25.5301 40.4227C25.3119 40.4458 25.2652 40.4073 25.0002 40.0145C24.86 39.8142 24.7509 39.6447 24.7509 39.6447C24.7509 39.6447 24.6496 39.6293 24.5327 39.6216L24.3145 39.5985L24.2132 39.8065L24.1119 40.0145L23.9327 39.9605C23.7924 39.9143 23.6521 39.8604 23.5197 39.7988L23.2859 39.6832V39.2441L25.3587 39.2518L27.4314 39.2595L27.4392 39.4675C27.447 39.714 27.4548 39.7063 27.1119 39.8989ZM31.0081 38.5123C30.8912 38.9514 30.7977 39.3057 30.7977 39.3211C30.712 39.3289 30.6341 39.3366 30.5484 39.3288H30.299L29.9639 40.1377C29.7769 40.5768 29.6055 40.9851 29.5821 41.0467L29.5353 41.1546L29.3717 40.8926L29.2081 40.6307V38.4969L29.1457 38.5123C29.0133 38.5431 28.0704 38.6664 27.6574 38.7049C25.9509 38.8743 24.2366 38.8358 22.5378 38.597C22.2651 38.5585 22.0313 38.5277 22.0235 38.5354C22.0157 38.5431 22.0235 39.0361 22.0391 39.6447L22.0625 40.7386L21.93 40.9389C21.8599 41.0467 21.7898 41.1392 21.7898 41.1469C21.7664 41.17 21.6885 41.0467 21.5092 40.6924C21.3144 40.3226 21.1742 39.9297 21.0729 39.5214L21.0183 39.298L20.7768 39.3134L20.5352 39.3366L20.4729 39.0515C20.4417 38.8975 20.4027 38.6586 20.3871 38.5277L20.3638 38.2812L20.1612 38.104C20.0443 38.0039 19.9274 37.9037 19.904 37.8883C19.8651 37.8575 19.8495 37.8036 19.8495 37.7573V37.6649L20.8235 37.6726L21.7976 37.6803L21.8287 37.7805L21.8599 37.8806L22.195 37.896C22.382 37.9037 22.9742 37.9191 23.5041 37.9345L24.4781 37.9576L24.7275 37.5725L24.9846 37.1873H25.3119L25.3041 36.3861L25.2963 35.585L24.8677 35.4001C23.4885 34.7992 22.6781 34.1136 22.3742 33.2817C22.3119 33.1122 22.3119 33.0506 22.2963 32.2802C22.2885 31.5176 22.2885 31.4483 22.343 31.2788C22.4521 30.8936 22.756 30.5932 23.1456 30.493C23.2781 30.4545 23.6288 30.4545 25.4678 30.4545L27.634 30.4622L27.8756 30.5778C28.1639 30.7164 28.2964 30.8166 28.46 31.0323C28.647 31.2788 28.7016 31.4714 28.7016 31.9413C28.7016 32.6115 28.6548 33.1892 28.5847 33.4203C28.4834 33.7362 28.3275 34.0366 28.1327 34.3062C27.7431 34.7992 27.034 35.2923 26.3872 35.5157L26.2002 35.585L26.208 36.3938L26.2158 37.2027L26.3872 37.2181L26.5587 37.2335L26.7925 37.5802L27.0184 37.9268H28.0626C28.6392 37.9268 29.1457 37.9345 29.1925 37.9422C29.2704 37.9576 29.286 37.9499 29.3639 37.819L29.4574 37.6803H30.3535C31.0471 37.6803 31.2497 37.688 31.2497 37.7111C31.2263 37.7034 31.125 38.0809 31.0081 38.5123Z" fill="white"/>
<path d="M46.5305 29.715C46.5149 29.3683 46.4838 28.883 46.4604 28.6442C46.1253 25.1468 45.2214 22.2889 43.5071 19.2614C43.437 19.1459 43.3746 19.0303 43.3357 18.9379C43.3201 18.9148 43.3123 18.8917 43.3045 18.8763C43.5461 18.1598 44.5357 15.1632 45.3227 11.7352C46.3903 7.08232 47.0682 1.64371 44.9954 0.0105864C44.9954 0.0105864 41.411 -0.25133 36.6109 4.40154C35.3096 5.68801 34.1173 7.08233 33.0576 8.56909L32.7225 8.46124C30.79 7.83726 28.7874 7.45209 26.7692 7.32113C26.1614 7.27491 23.8938 7.27491 23.1535 7.32113C20.9171 7.4675 19.2028 7.79874 17.2547 8.46894C17.1768 8.49975 17.1067 8.52286 17.0365 8.54597C15.9378 7.06692 14.7144 5.6803 13.3664 4.40924C8.37148 -0.266736 4.65453 0.00288248 4.65453 0.00288248C2.4571 1.68993 3.20516 7.37506 4.34284 12.182C5.0909 15.3635 6.0104 18.1598 6.35326 19.169C6.32988 19.2229 6.29872 19.2845 6.26755 19.3385C4.45193 22.9745 3.4701 26.4795 3.23633 30.208C5.27013 29.9153 10.8728 29.584 15.0729 34.052C15.0729 34.052 17.847 26.8108 25.3276 26.8108C32.8082 26.8108 34.4057 34.052 34.4057 34.052C39.3616 30.0077 44.6993 30.1387 46.5695 30.3312C46.5617 30.1772 46.5461 29.9461 46.5305 29.715ZM7.82601 16.2648C7.82601 16.2648 4.91168 9.0621 5.65974 4.94848C5.78442 4.25517 6.01819 3.6466 6.38443 3.18439C6.38443 3.18439 9.68838 3.50794 15.0183 9.36254C15.0183 9.36254 14.0053 9.84785 12.6495 10.8801C12.6495 10.8801 12.6417 10.8878 12.6339 10.8878C11.1611 12.0048 9.27539 13.7766 7.82601 16.2648ZM20.1924 26.9649C20.1457 27.0573 19.9119 27.1574 19.647 27.196C19.382 27.2345 18.5716 27.2114 18.1119 27.1574C16.4599 26.9417 14.7066 26.441 13.4287 25.8247C12.7118 25.4781 12.1975 25.1314 11.8157 24.754L11.5975 24.5306L11.5741 24.2378C11.5352 23.7294 11.543 22.9283 11.6053 22.6432C11.6443 22.4044 11.73 22.1733 11.8469 21.9653C11.9092 21.8883 11.9092 21.8883 12.1897 21.8883C12.5326 21.8883 12.8209 21.9422 13.2884 22.0886C14.2469 22.3813 15.6729 23.09 17.4106 24.1223C18.8444 24.9697 19.382 25.3857 19.795 25.9557C20.0756 26.3101 20.2626 26.8108 20.1924 26.9649ZM38.5512 24.415C38.5278 24.5383 38.1616 24.908 37.7953 25.1777C36.72 25.9557 34.7953 26.6798 32.8394 27.0265C31.7251 27.2268 30.6108 27.2576 30.2757 27.0958C30.0575 26.988 30.0264 26.9032 30.1043 26.6259C30.2679 26.0481 30.7978 25.4165 31.6238 24.8233C32.0446 24.5229 33.7511 23.4983 34.5459 23.0669C35.855 22.3582 36.9148 21.9345 37.6317 21.8344C37.8577 21.8036 38.1304 21.7959 38.2161 21.8344C38.3564 21.8883 38.5122 22.2966 38.5746 22.7896C38.6057 23.0515 38.5901 24.207 38.5512 24.415ZM37.2576 10.8801L37.2421 10.8724C35.933 9.84015 34.9511 9.35483 34.9511 9.35483C40.1019 3.50023 43.2889 3.17669 43.2889 3.17669C43.6396 3.6466 43.8655 4.24747 43.9902 4.94077C44.7149 9.0544 41.9019 16.2648 41.9019 16.2648C40.7252 14.1926 39.1434 12.3592 37.2576 10.8801Z" fill="#FFA409"/>
<path d="M43.9981 4.94078C43.3903 4.86375 40.5149 4.84834 37.2577 10.8801L37.2421 10.8724C35.933 9.84016 34.9512 9.35484 34.9512 9.35484C40.1019 3.50024 43.289 3.1767 43.289 3.1767C43.6474 3.64661 43.8734 4.24747 43.9981 4.94078Z" fill="#FF9300"/>
<path d="M41.9098 16.2648C40.7254 14.1849 39.1513 12.3592 37.2578 10.8801C40.515 4.84837 43.3826 4.86377 43.9982 4.94081C44.7229 9.06214 41.9098 16.2648 41.9098 16.2648Z" fill="#FF8300"/>
<path d="M44.1149 4.96391C44.076 4.9562 44.037 4.9485 43.998 4.9408L44.1149 4.96391Z" fill="#FF8300"/>
<path d="M15.0187 9.3549C15.0187 9.3549 14.0057 9.84022 12.6499 10.8725C12.6499 10.8725 12.6421 10.8802 12.6343 10.8802C9.26019 4.8407 6.29131 4.86381 5.65234 4.94084C5.77702 4.24753 6.01079 3.63896 6.37703 3.17676C6.38483 3.17676 9.68877 3.5003 15.0187 9.3549Z" fill="#FF9300"/>
<path d="M12.6418 10.8801C11.1613 12.0048 9.27555 13.7689 7.82617 16.2648C7.82617 16.2648 4.91184 9.06214 5.6599 4.94081C6.29108 4.86377 9.26775 4.84837 12.6418 10.8801Z" fill="#FF8300"/>
<path d="M5.65983 4.9408C5.62087 4.9485 5.57412 4.9562 5.53516 4.96391L5.65983 4.9408Z" fill="#FF8300"/>
<path d="M34.0233 20.2628C34.0233 20.2628 31.5297 20.4169 31.8414 18.4911C32.1531 16.5652 34.1012 16.3341 34.6467 16.4111C35.1921 16.4882 37.374 17.2585 36.9844 18.8762C36.5947 20.4939 36.0493 20.1858 35.7376 20.2628C35.4259 20.3399 34.0233 20.2628 34.0233 20.2628Z" fill="white"/>
<path d="M15.6336 20.2628C15.6336 20.2628 13.1401 20.4169 13.4518 18.4911C13.7635 16.5652 15.7115 16.3341 16.257 16.4111C16.8025 16.4882 18.9843 17.2585 18.5947 18.8762C18.2051 20.4939 17.6596 20.1858 17.3479 20.2628C17.0362 20.3399 15.6336 20.2628 15.6336 20.2628Z" fill="white"/>
</g>
<defs>
<clipPath id="clip0_1460_8577">
<rect width="50" height="50" fill="white"/>
</clipPath>
</defs>
</svg>
