<svg width="50" height="50" viewBox="0 0 50 50" fill="none" xmlns="http://www.w3.org/2000/svg">
<g clip-path="url(#clip0_1460_8582)">
<path d="M25 50C38.8071 50 50 38.8071 50 25C50 11.1929 38.8071 0 25 0C11.1929 0 0 11.1929 0 25C0 38.8071 11.1929 50 25 50Z" fill="#EF0027"/>
<path d="M33.4875 15.0875L10.9375 10.9375L22.8047 40.8L39.3406 20.6531L33.4875 15.0875ZM33.125 16.9156L36.575 20.1953L27.1406 21.9031L33.125 16.9156V16.9156ZM25.0906 21.5609L15.1469 13.3141L31.4 16.3047L25.0906 21.5609V21.5609ZM24.3828 23.0203L22.7609 36.4266L14.0188 14.4219L24.3828 23.0188V23.0203ZM25.8828 23.7312L36.3313 21.8406L24.3469 36.4391L25.8828 23.7312Z" fill="white"/>
</g>
<defs>
<clipPath id="clip0_1460_8582">
<rect width="50" height="50" fill="white"/>
</clipPath>
</defs>
</svg>
