<svg width="50" height="50" viewBox="0 0 50 50" fill="none" xmlns="http://www.w3.org/2000/svg">
<g clip-path="url(#clip0_1460_8579)">
<path d="M25 50C38.8071 50 50 38.8071 50 25C50 11.1929 38.8071 0 25 0C11.1929 0 0 11.1929 0 25C0 38.8071 11.1929 50 25 50Z" fill="#2775C9"/>
<path d="M24.6094 42.9688C14.4688 42.9688 6.25 34.75 6.25 24.6094C6.25 14.4688 14.4688 6.25 24.6094 6.25C34.75 6.25 42.9688 14.4688 42.9688 24.6094C42.9687 29.4786 41.0345 34.1484 37.5914 37.5914C34.1484 41.0345 29.4786 42.9687 24.6094 42.9688V42.9688ZM23.5156 17.7969C22.5111 17.8467 21.5615 18.2702 20.8532 18.9843C20.1449 19.6983 19.7291 20.6514 19.6875 21.6562C19.6875 23.5469 20.8437 24.7813 23.2969 25.2969L25.0156 25.7031C26.6875 26.0938 27.375 26.6563 27.375 27.6094C27.375 28.5625 26.1719 29.5 24.6094 29.5C24.0544 29.5509 23.4963 29.4445 22.9989 29.1931C22.5015 28.9416 22.0849 28.5552 21.7969 28.0781C21.7115 27.8971 21.5768 27.7438 21.4082 27.636C21.2395 27.5282 21.0439 27.4702 20.8438 27.4687H19.9219C19.851 27.4819 19.7834 27.5089 19.723 27.5483C19.6626 27.5876 19.6105 27.6385 19.5699 27.6981C19.5292 27.7576 19.5007 27.8246 19.4861 27.8952C19.4714 27.9658 19.4708 28.0386 19.4844 28.1094C19.7089 29.0259 20.231 29.842 20.969 30.4301C21.7069 31.0182 22.619 31.345 23.5625 31.3594V32.6719C23.5625 32.964 23.6786 33.2442 23.8851 33.4508C24.0917 33.6574 24.3719 33.7734 24.6641 33.7734C24.9562 33.7734 25.2364 33.6574 25.443 33.4508C25.6496 33.2442 25.7656 32.964 25.7656 32.6719V31.3437C26.8325 31.3317 27.8525 30.9035 28.6083 30.1506C29.3642 29.3976 29.7963 28.3793 29.8125 27.3125C29.8125 25.3281 28.6719 24.1875 25.9688 23.6094L24.4062 23.2656C22.8437 22.875 22.1094 22.3594 22.1094 21.4844C22.1094 20.6094 23.0469 19.6406 24.6094 19.6406C25.1015 19.5892 25.5979 19.6814 26.0388 19.906C26.4796 20.1306 26.846 20.478 27.0938 20.9063C27.1942 21.1201 27.3531 21.3012 27.5523 21.4284C27.7514 21.5556 27.9825 21.6238 28.2187 21.625H28.9531C29.1201 21.5842 29.2644 21.4794 29.3549 21.3333C29.4455 21.1873 29.4752 21.0115 29.4375 20.8438C29.2258 19.9976 28.7523 19.2398 28.0845 18.6787C27.4167 18.1175 26.5888 17.7815 25.7187 17.7188V16.6406C25.7187 16.3485 25.6027 16.0683 25.3961 15.8617C25.1895 15.6551 24.9093 15.5391 24.6172 15.5391C24.325 15.5391 24.0448 15.6551 23.8383 15.8617C23.6317 16.0683 23.5156 16.3485 23.5156 16.6406V17.7969V17.7969ZM10.8438 24.6094C10.8455 27.4876 11.7515 30.2925 13.4337 32.628C15.1159 34.9635 17.4894 36.7114 20.2187 37.625H20.4375C20.624 37.625 20.8028 37.5509 20.9347 37.4191C21.0665 37.2872 21.1406 37.1084 21.1406 36.9219V36.5938C21.1411 36.3029 21.0553 36.0184 20.894 35.7764C20.7326 35.5344 20.5031 35.3458 20.2344 35.2344C18.1088 34.3764 16.288 32.9028 15.0059 31.0026C13.7238 29.1025 13.0388 26.8626 13.0388 24.5703C13.0388 22.2781 13.7238 20.0381 15.0059 18.138C16.288 16.2379 18.1088 14.7642 20.2344 13.9062C20.5018 13.7976 20.7308 13.6118 20.8922 13.3725C21.0537 13.1331 21.1401 12.8512 21.1406 12.5625V12.2031C21.1416 12.0976 21.1172 11.9934 21.0694 11.8993C21.0215 11.8053 20.9517 11.7242 20.8658 11.6628C20.78 11.6015 20.6806 11.5618 20.5761 11.547C20.4716 11.5323 20.3651 11.5429 20.2656 11.5781C17.5249 12.4845 15.1395 14.2314 13.4482 16.5707C11.7568 18.91 10.8455 21.7227 10.8438 24.6094V24.6094ZM38.375 24.6094C38.3699 21.7338 37.4624 18.9324 35.7805 16.6C34.0985 14.2677 31.7269 12.5221 29 11.6094H28.7656C28.5709 11.6094 28.3841 11.6867 28.2463 11.8245C28.1086 11.9622 28.0313 12.149 28.0313 12.3438V12.5781C28.0376 12.8795 28.1309 13.1726 28.3 13.4221C28.4691 13.6716 28.7068 13.8669 28.9844 13.9844C31.1051 14.8449 32.9209 16.3186 34.1994 18.2169C35.4778 20.1153 36.1607 22.3519 36.1607 24.6406C36.1607 26.9293 35.4778 29.166 34.1994 31.0643C32.9209 32.9627 31.1051 34.4364 28.9844 35.2969C28.7121 35.4156 28.4793 35.6094 28.3132 35.8557C28.1472 36.102 28.0548 36.3906 28.0469 36.6875V36.9531C28.0482 37.069 28.0769 37.1828 28.1307 37.2855C28.1844 37.3881 28.2617 37.4765 28.3562 37.5436C28.4507 37.6106 28.5596 37.6543 28.6743 37.6712C28.7889 37.6881 28.9058 37.6776 29.0156 37.6406C31.7446 36.7235 34.1165 34.9721 35.7959 32.6337C37.4754 30.2954 38.3776 27.4884 38.375 24.6094V24.6094Z" fill="white"/>
</g>
<defs>
<clipPath id="clip0_1460_8579">
<rect width="50" height="50" fill="white"/>
</clipPath>
</defs>
</svg>
