<svg width="50" height="50" viewBox="0 0 50 50" fill="none" xmlns="http://www.w3.org/2000/svg">
<g clip-path="url(#clip0_1460_8572)">
<path d="M25 50C38.8071 50 50 38.8071 50 25C50 11.1929 38.8071 0 25 0C11.1929 0 0 11.1929 0 25C0 38.8071 11.1929 50 25 50Z" fill="#26A17B"/>
<path fill-rule="evenodd" clip-rule="evenodd" d="M27.5344 27.4437V27.4406C27.3625 27.4531 26.4766 27.5063 24.5 27.5063C22.9219 27.5063 21.8109 27.4594 21.4203 27.4406V27.4453C15.3453 27.1781 10.8109 26.1203 10.8109 24.8547C10.8109 23.5906 15.3453 22.5328 21.4203 22.2609V26.3922C21.8172 26.4203 22.9547 26.4875 24.5266 26.4875C26.4125 26.4875 27.3578 26.4094 27.5344 26.3938V22.2641C33.5969 22.5344 38.1203 23.5922 38.1203 24.8547C38.1203 26.1203 33.5969 27.175 27.5344 27.4437V27.4437ZM27.5344 21.8344V18.1375H35.9937V12.5H12.9609V18.1375H21.4203V21.8328C14.5453 22.1484 9.375 23.5109 9.375 25.1422C9.375 26.7734 14.5453 28.1344 21.4203 28.4516V40.2984H27.5344V28.4484C34.3984 28.1328 39.5562 26.7719 39.5562 25.1422C39.5562 23.5125 34.3984 22.1516 27.5344 21.8344" fill="white"/>
</g>
<defs>
<clipPath id="clip0_1460_8572">
<rect width="50" height="50" fill="white"/>
</clipPath>
</defs>
</svg>
