<svg width="50" height="50" viewBox="0 0 50 50" fill="none" xmlns="http://www.w3.org/2000/svg">
<g clip-path="url(#clip0_1460_8571)">
<path d="M25 50C38.8071 50 50 38.8071 50 25C50 11.1929 38.8071 0 25 0C11.1929 0 0 11.1929 0 25C0 38.8071 11.1929 50 25 50Z" fill="#23292F"/>
<path d="M36.0469 12.5H40.5625L31.1641 21.8078C29.5209 23.4268 27.3067 24.3343 25 24.3343C22.6933 24.3343 20.4791 23.4268 18.8359 21.8078L9.42969 12.5H13.9531L21.0938 19.5672C22.1336 20.5935 23.5358 21.169 24.9969 21.169C26.4579 21.169 27.8602 20.5935 28.9 19.5672L36.0469 12.5ZM13.8984 38.3797H9.375L18.8359 29.0156C20.4791 27.3967 22.6933 26.4892 25 26.4892C27.3067 26.4892 29.5209 27.3967 31.1641 29.0156L40.625 38.3781H36.1016L28.9062 31.25C27.8664 30.2237 26.4642 29.6482 25.0031 29.6482C23.5421 29.6482 22.1398 30.2237 21.1 31.25L13.8969 38.3797H13.8984Z" fill="white"/>
</g>
<defs>
<clipPath id="clip0_1460_8571">
<rect width="50" height="50" fill="white"/>
</clipPath>
</defs>
</svg>
